<?xml version="1.0" encoding="UTF-8" standalone="no"?>
<!-- Created with Inkscape (http://www.inkscape.org/) -->

<svg
   width="1704"
   height="320"
   version="1.1"
   viewBox="0 0 1704 320"
   id="svg5"
   xmlns="http://www.w3.org/2000/svg"
   xmlns:svg="http://www.w3.org/2000/svg">
  <defs
     id="defs5" />
  <g
     fill="none"
     stroke="#000"
     stroke-width="3.7"
     id="g5">
    <rect
       id="1434ad"
       x="33.638"
       y="19.222"
       width="123.02"
       height="116.29" />
    <rect
       id="1432ad"
       x="161.94"
       y="20.663"
       width="50.457"
       height="113.89" />
    <rect
       x="31.716"
       y="137.92"
       width="61.029"
       height="50.457"
       id="rect1" />
    <rect
       id="1427ad"
       x="31.235001"
       y="189.81"
       width="122.05707"
       height="113.89326" />
    <rect
       id="1425ad"
       x="152.81"
       y="190.77"
       width="86.978"
       height="110.04" />
    <rect
       id="1423ad"
       x="239.79"
       y="190.29"
       width="60.548"
       height="109.56" />
    <rect
       id="podsobka"
       x="299.38"
       y="190.77"
       width="36.041"
       height="108.6" />
    <rect
       id="1421ad"
       x="333.02"
       y="188.85"
       width="137.43"
       height="111.49" />
    <rect
       id="1419b_ad"
       x="625.18"
       y="216.24"
       width="40.846"
       height="85.056" />
    <rect
       id="1419a_ad"
       x="666.51"
       y="218.17"
       width="64.873"
       height="84.095" />
    <rect
       id="1419v_ad"
       x="472.37"
       y="188.85"
       width="152.33"
       height="111.49" />
    <rect
       id="1417ad"
       x="733.31"
       y="188.37"
       width="73.042"
       height="111.97" />
    <rect
       id="1415ad"
       x="805.87"
       y="189.81"
       width="61.029"
       height="110.52" />
    <rect
       id="1413ad"
       x="867.38"
       y="190.77"
       width="54.782"
       height="111.01" />
    <rect
       id="1411ad"
       x="922.16"
       y="189.81"
       width="65.354"
       height="111.97" />
    <rect
       id="1409ad"
       x="988.95"
       y="188.85"
       width="145.6"
       height="115.33" />
    <rect
       id="1407ad"
       x="1196.1"
       y="187.89"
       width="82.173"
       height="113.41" />
    <rect
       id="1405ad"
       x="1278.2"
       y="187.89"
       width="61.029"
       height="113.41" />
    <rect
       id="1403ad"
       x="1338.8"
       y="189.33"
       width="103.8"
       height="112.45" />
    <rect
       id="1401ad"
       x="1442.1"
       y="188.85"
       width="204.23"
       height="112.93" />
    <rect
       id="1402ad"
       x="1468.1"
       y="10.358"
       width="112.41"
       height="117.95" />
    <rect
       id="1404ad"
       x="1369.1"
       y="8.533"
       width="98.03"
       height="121.21" />
    <rect
       id="1406ad"
       x="1275.8"
       y="8.1692"
       width="93.225"
       height="121.1" />
    <rect
       x="1238.4"
       y="10.091"
       width="37.481998"
       height="81.211411"
       id="podsobka0806" />
    <rect
       id="1408ad"
       x="1180.2"
       y="9.1303"
       width="58.146"
       height="121.1" />
    <rect
       id="1408a_ad"
       x="1121.6"
       y="10.572"
       width="59.587"
       height="120.14" />
    <rect
       id="1410ad"
       x="1053.3"
       y="10.091"
       width="68.237"
       height="121.58" />
    <rect
       id="1412ad"
       x="980.79"
       y="12.494"
       width="72.562"
       height="118.69" />
    <rect
       id="1414ad"
       x="930.33"
       y="13.455"
       width="48.054"
       height="118.69" />
    <rect
       x="896.69"
       y="12.494"
       width="32.677"
       height="119.65"
       id="rect4" />
    <rect
       id="1416ad"
       x="856.81"
       y="11.533"
       width="38.924"
       height="120.62" />
    <rect
       id="1418ad"
       x="816.44"
       y="12.014"
       width="40.365"
       height="120.62" />
    <rect
       id="1420ad"
       x="737.63"
       y="11.533"
       width="77.848"
       height="121.58" />
    <rect
       id="1422ad"
       x="668.91"
       y="13.455"
       width="67.756"
       height="119.17" />
    <rect
       id="1424ad"
       x="624.7"
       y="12.975"
       width="41.327"
       height="119.65" />
    <rect
       x="592.99"
       y="14.897"
       width="30.274"
       height="117.25"
       id="rect5" />
    <rect
       id="1426qw"
       x="444.98"
       y="13.936"
       width="146.08"
       height="118.21" />
    <rect
       id="1428qw"
       x="392.6"
       y="14.416"
       width="51.898"
       height="118.69" />
    <rect
       id="tualet"
       x="331.09"
       y="16.338"
       width="61.99"
       height="117.25" />
    <path
       id="hall"
       d="m328.69 15.858-112.45-0.96108-3.3638 120.14-119.17 0.48054-0.96108 53.34 532.92-1.4416 0.96109 27.871 103.8-0.48054-0.96108-27.871h405.1l0.4805 131.67 61.509 0.96109v-133.11l473.81-1.4416-0.4805-172.51-90.342-1.4416 0.961 118.21-304.66-0.48054-1.4417-39.404h-33.157v40.846" />
    <path
       d="m328.69 16.819h-113.89l0.48054 117.73-121.1 2.8832-1.9222 49.976h533.88l0.48054 27.391 103.32-1.4416v-25.469l407.02 0.48054-2.8833 134.07 61.99 0.48054 0.4805-135.99 476.7-1.9222-2.8832-173.96-91.783-0.96108 3.3638 117.25-305.14 0.96108-1.9221-37.002-33.638 0.96108 0.4805 37.482-913.99 4.3249z"
       id="path5" />
  </g>
</svg>
