<?xml version="1.0" encoding="UTF-8" standalone="no"?>
<svg
    width="1704"
    height="320"
    version="1.1"
    viewBox="0 0 1704 320"
    xml:space="preserve"
    id="svg4"

    xmlns="http://www.w3.org/2000/svg"
    xmlns:svg="http://www.w3.org/2000/svg"><defs
     id="defs4" />
    <g
        fill="none"
        stroke="#000"
        stroke-width="3.7"
        id="g4">

        <rect
            id="1434ad"
            x="32.256"
            y="18.52"
            width="123.4"
            height="117.02"
            stroke-width="3.6545"
            class="auditorium"
            onclick="handleAuditoriumClick(this.id)" />
        <text x="93.956" y="77.03" font-size="19" text-anchor="middle" style="font-weight: 100;" transform="rotate(-90 93.956 77.03)">1434</text>

        <rect
            id="1432ad"
            x="156.53"
            y="18.093"
            width="58.487"
            height="116.44"
            ry="0"
            stroke-width="3.7494"
            class="auditorium"
            onclick="handleAuditoriumClick(this.id)" /><text x="185.7735" y="76.313" font-size="19" text-anchor="middle" style="font-weight: 100;" transform="rotate(-90 185.7735 76.313)">1432</text><rect
        x="31.716"
        y="137.92"
        width="61.029"
        height="50.457"
        id="rect1"
        class="auditorium"
        onclick="handleAuditoriumClick(this.id)" /><text x="62.2305" y="163.1485" font-size="19" text-anchor="middle" style="font-weight: 100;" transform="rotate(-90 62.2305 163.1485)"></text><rect
        id="1427ad"
        x="31.737"
        y="189.83"
        width="122.21"
        height="114.26"
        stroke-width="3.7429"
        class="auditorium"
        onclick="handleAuditoriumClick(this.id)" /><text x="92.842" y="246.96" font-size="19" text-anchor="middle" style="font-weight: 100;" transform="rotate(-90 92.842 246.96)">1427</text><rect
        id="1425ad"
        x="152.6"
        y="190.8"
        width="87.167"
        height="112.87"
        stroke-width="3.7514"
        class="auditorium"
        onclick="handleAuditoriumClick(this.id)" /><text x="196.1835" y="247.235" font-size="19" text-anchor="middle" style="font-weight: 100;" transform="rotate(-90 196.1835 247.235)">1425</text><rect
        id="1423ad"
        x="240.28"
        y="190.3"
        width="58.002"
        height="113.54"
        stroke-width="3.7271"
        class="auditorium"
        onclick="handleAuditoriumClick(this.id)" /><text x="269.281" y="247.07" font-size="19" text-anchor="middle" style="font-weight: 100;" transform="rotate(-90 269.281 247.07)">1423</text><rect
        id="podsobka"
        x="298.47"
        y="190.82"
        width="33.497"
        height="113.46"
        stroke-width="3.8072"
        class="auditorium"
        onclick="handleAuditoriumClick(this.id)" /><text x="315.2185" y="247.55" font-size="19" text-anchor="middle" style="font-weight: 100;" transform="rotate(-90 315.2185 247.55)"></text><rect
        id="1421ad"
        x="333.05"
        y="188.88"
        width="137.37"
        height="115.27"
        stroke-width="3.7614"
        class="auditorium"
        onclick="handleAuditoriumClick(this.id)" /><text x="401.735" y="246.515" font-size="19" text-anchor="middle" style="font-weight: 100;" transform="rotate(-90 401.735 246.515)">1421</text><rect
        id="1419b_ad"
        x="624.28"
        y="216.3"
        width="41.682"
        height="87.656"
        stroke-width="3.8251"
        class="auditorium"
        onclick="handleAuditoriumClick(this.id)" /><text x="645.121" y="260.128" font-size="19" text-anchor="middle" style="font-weight: 100;" transform="rotate(-90 645.121 260.128)">1419б</text><rect
        id="1419a_ad"
        x="665.83"
        y="214.78"
        width="64.262"
        height="89.292"
        ry="0"
        stroke-width="3.7065"
        class="auditorium"
        onclick="handleAuditoriumClick(this.id)" /><text x="697.961" y="259.426" font-size="19" text-anchor="middle" style="font-weight: 100;" transform="rotate(-90 697.961 259.426)">1419a</text><rect
        id="1419v_ad"
        x="470.49"
        y="188.89"
        width="154.17"
        height="115.25"
        stroke-width="3.7845"
        class="auditorium"
        onclick="handleAuditoriumClick(this.id)" /><text x="547.575" y="246.515" font-size="19" text-anchor="middle" style="font-weight: 100;" transform="rotate(-90 547.575 246.515)">1419в</text><rect
        id="1417ad"
        x="730.49"
        y="188.44"
        width="75.794"
        height="115.68"
        stroke-width="3.831"
        class="auditorium"
        onclick="handleAuditoriumClick(this.id)" /><text x="768.387" y="246.28" font-size="19" text-anchor="middle" style="font-weight: 100;" transform="rotate(-90 768.387 246.28)">1417a</text><rect
        id="1415ad"
        x="806.14"
        y="189.84"
        width="60.735"
        height="114.31"
        stroke-width="3.7538"
        class="auditorium"
        onclick="handleAuditoriumClick(this.id)" /><text x="836.5075" y="246.995" font-size="19" text-anchor="middle" style="font-weight: 100;" transform="rotate(-90 836.5075 246.995)">1415</text><rect
        id="1413ad"
        x="867.4"
        y="190.79"
        width="54.744"
        height="113.37"
        stroke-width="3.7379"
        class="auditorium"
        onclick="handleAuditoriumClick(this.id)" /><text x="894.772" y="247.475" font-size="19" text-anchor="middle" style="font-weight: 100;" transform="rotate(-90 894.772 247.475)">1413</text><rect
        id="1411ad"
        x="922.65"
        y="189.82"
        width="64.849"
        height="114.35"
        stroke-width="3.7246"
        class="auditorium"
        onclick="handleAuditoriumClick(this.id)" /><text x="955.0745" y="247.0" font-size="19" text-anchor="middle" style="font-weight: 100;" transform="rotate(-90 955.0745 247.0)">1411</text><rect
        id="1409ad"
        x="988.95"
        y="188.85"
        width="145.6"
        height="115.33"
        class="auditorium"
        onclick="handleAuditoriumClick(this.id)" /><text x="1061.75" y="246.515" font-size="19" text-anchor="middle" style="font-weight: 100;" transform="rotate(-90 1061.75 246.515)">1409</text><rect
        id="1407ad"
        x="1196.1"
        y="187.89"
        width="82.173"
        height="113.41"
        class="auditorium"
        onclick="handleAuditoriumClick(this.id)" /><text x="1237.1865" y="244.595" font-size="19" text-anchor="middle" style="font-weight: 100;" transform="rotate(-90 1237.1865 244.595)">1407</text><rect
        id="1405ad"
        x="1278.2"
        y="187.89"
        width="61.029"
        height="113.41"
        class="auditorium"
        onclick="handleAuditoriumClick(this.id)" /><text x="1308.7145" y="244.595" font-size="19" text-anchor="middle" style="font-weight: 100;" transform="rotate(-90 1308.7145 244.595)">1405</text><rect
        id="1403ad"
        x="1338.8"
        y="189.33"
        width="103.8"
        height="112.45"
        class="auditorium"
        onclick="handleAuditoriumClick(this.id)" /><text x="1390.7" y="245.555" font-size="19" text-anchor="middle" style="font-weight: 100;" transform="rotate(-90 1390.7 245.555)">1403</text><rect
        id="1401ad"
        x="1442.1"
        y="188.85"
        width="204.23"
        height="112.93"
        class="auditorium"
        onclick="handleAuditoriumClick(this.id)" /><text x="1544.215" y="245.315" font-size="19" text-anchor="middle" style="font-weight: 100;" transform="rotate(-90 1544.215 245.315)">1401</text><rect
        id="1402ad"
        x="1467.8"
        y="15.427"
        width="112.67"
        height="112.89"
        stroke-width="3.6774"
        class="auditorium"
        onclick="handleAuditoriumClick(this.id)" /><text x="1524.135" y="71.872" font-size="19" text-anchor="middle" style="font-weight: 100;" transform="rotate(-90 1524.135 71.872)">1402</text><rect
        id="1404ad"
        x="1369.2"
        y="15.661"
        width="98.01"
        height="114.11"
        stroke-width="3.6372"
        class="auditorium"
        onclick="handleAuditoriumClick(this.id)" /><text x="1418.205" y="72.7165" font-size="19" text-anchor="middle" style="font-weight: 100;" transform="rotate(-90 1418.205 72.7165)">1404</text><rect
        id="1406ad"
        x="1275.9"
        y="15.493"
        width="93.172"
        height="113.81"
        stroke-width="3.6297"
        class="auditorium"
        onclick="handleAuditoriumClick(this.id)" /><text x="1322.486" y="72.4" font-size="19" text-anchor="middle" style="font-weight: 100;" transform="rotate(-90 1322.486 72.4)">1406</text><rect
        x="1238.6"
        y="15.384"
        width="37.296"
        height="75.945"
        stroke-width="3.6462"
        id="rect2"
        class="auditorium"
        onclick="handleAuditoriumClick(this.id)" /><text x="1257.248" y="53.3565" font-size="19" text-anchor="middle" style="font-weight: 100;" transform="rotate(-90 1257.248 53.3565)"></text><rect
        id="1408ad"
        x="1181.6"
        y="15.368"
        width="56.791"
        height="114.91"
        stroke-width="3.613"
        class="auditorium"
        onclick="handleAuditoriumClick(this.id)" /><text x="1210" y="72.823" font-size="19" text-anchor="middle" style="font-weight: 100;" transform="rotate(-90 1210 72.823)">1408</text><rect
        id="1408a_ad"
        x="1122.7"
        y="15.465"
        width="58.485"
        height="115.28"
        stroke-width="3.6423"
        class="auditorium"
        onclick="handleAuditoriumClick(this.id)" /><text x="1151.9425" y="73.105" font-size="19" text-anchor="middle" style="font-weight: 100;" transform="rotate(-90 1151.9425 73.105)">1408a</text><rect
        id="1410ad"
        x="1053.3"
        y="15.528"
        width="68.237"
        height="116.14"
        class="auditorium"
        onclick="handleAuditoriumClick(this.id)" /><text x="1087.4185" y="73.6" font-size="19" text-anchor="middle" style="font-weight: 100;" transform="rotate(-90 1087.4185 73.6)">1410</text><rect
        id="1412ad"
        x="978.75"
        y="15.212"
        width="74.601"
        height="115.97"
        class="auditorium"
        onclick="handleAuditoriumClick(this.id)" /><text x="1016.0505" y="73.197" font-size="19" text-anchor="middle" style="font-weight: 100;" transform="rotate(-90 1016.0505 73.197)">1412</text><rect
        id="1414ad"
        x="930.28"
        y="15.246"
        width="48.068"
        height="116.86"
        stroke-width="3.7684"
        class="auditorium"
        onclick="handleAuditoriumClick(this.id)" /><text x="954.314" y="73.676" font-size="19" text-anchor="middle" style="font-weight: 100;" transform="rotate(-90 954.314 73.676)">1414</text><rect
        x="895.97"
        y="15.453"
        width="33.355"
        height="116.65"
        stroke-width="3.7841"
        id="rect3"
        class="auditorium"
        onclick="handleAuditoriumClick(this.id)" /><text x="912.6475" y="73.778" font-size="19" text-anchor="middle" style="font-weight: 100;" transform="rotate(-90 912.6475 73.778)"></text><rect
        id="1416ad"
        x="856.81"
        y="15.611"
        width="38.924"
        height="116.54"
        class="auditorium"
        onclick="handleAuditoriumClick(this.id)" /><text x="876.272" y="73.881" font-size="19" text-anchor="middle" style="font-weight: 100;" transform="rotate(-90 876.272 73.881)">1416</text><rect
        id="1418ad"
        x="815.97"
        y="15.625"
        width="40.818"
        height="117"
        stroke-width="3.7279"
        class="auditorium"
        onclick="handleAuditoriumClick(this.id)" /><text x="836.379" y="74.125" font-size="19" text-anchor="middle" style="font-weight: 100;" transform="rotate(-90 836.379 74.125)">1418</text><rect
        id="1420ad"
        x="736.95"
        y="15.611"
        width="78.528"
        height="117.5"
        class="auditorium"
        onclick="handleAuditoriumClick(this.id)" /><text x="776.214" y="74.361" font-size="19" text-anchor="middle" style="font-weight: 100;" transform="rotate(-90 776.214 74.361)">1420</text><rect
        id="1422ad"
        x="666.19"
        y="15.494"
        width="70.474"
        height="117.13"
        class="auditorium"
        onclick="handleAuditoriumClick(this.id)" /><text x="701.427" y="74.0595" font-size="19" text-anchor="middle" style="font-weight: 100;" transform="rotate(-90 701.427 74.0595)">1422</text><rect
        id="1424ad"
        x="624.7"
        y="15.693"
        width="41.327"
        height="116.93"
        ry="0"
        class="auditorium"
        onclick="handleAuditoriumClick(this.id)" /><text x="645.3635" y="74.1585" font-size="19" text-anchor="middle" style="font-weight: 100;" transform="rotate(-90 645.3635 74.1585)">1424</text><rect
        x="590.27"
        y="16.256"
        width="32.992"
        height="115.89"
        id="rect4"
        class="auditorium"
        onclick="handleAuditoriumClick(this.id)" /><text x="606.766" y="74.201" font-size="19" text-anchor="middle" style="font-weight: 100;" transform="rotate(-90 606.766 74.201)"></text><rect
        id="1426qw"
        x="442.94"
        y="15.975"
        width="148.12"
        height="116.17"
        ry="0"
        class="auditorium"
        onclick="handleAuditoriumClick(this.id)" /><text x="516.99" y="74.0635" font-size="19" text-anchor="middle" style="font-weight: 100;" transform="rotate(-90 516.99 74.0635)">1426</text><rect
        id="1428qw"
        x="392.6"
        y="16.455"
        width="51.898"
        height="116.65"
        class="auditorium"
        onclick="handleAuditoriumClick(this.id)" /><text x="418.549" y="74.78" font-size="19" text-anchor="middle" style="font-weight: 100;" transform="rotate(-90 418.549 74.78)">1428</text><rect
        id="tualet"
        x="328.95"
        y="17.084"
        width="64.102"
        height="116.48"
        stroke-width="3.7501"
        class="auditorium"
        onclick="handleAuditoriumClick(this.id)" /><text x="360.001" y="75.324" font-size="19" text-anchor="middle" style="font-weight: 100;" transform="rotate(-90 360.001 75.324)">WC</text><path
        d="m328.69 18.7h-113.89l0.48055 117.01-121.1 2.8655-1.9222 49.67h533.88l0.48054 27.223 103.32-1.4328v-25.313l407.02 0.4776-2.8834 133.25 61.99 0.4776 0.4805-135.16 476.7-1.9104-2.8832-172.89-91.784 2.4219 3.3638 113.15-305.14 0.95519-1.9221-36.775-33.638 0.95519 0.4805 37.252-914 4.2984z"
        stroke-width="3.6887"
        id="path4" /></g></svg>